<?xml version="1.0" encoding="utf-8"?>
<!-- Generator: Adobe Illustrator 23.0.6, SVG Export Plug-In . SVG Version: 6.00 Build 0)  -->
<svg version="1.1" id="Layer_1" xmlns="http://www.w3.org/2000/svg" xmlns:xlink="http://www.w3.org/1999/xlink" x="0px" y="0px"
	 viewBox="0 0 1000 1000" style="enable-background:new 0 0 1000 1000;" xml:space="preserve">
<style type="text/css">
	.st0{display:none;}
	.st1{display:inline;fill:#3FB980;}
	.st2{fill:#3FB980;}
	.st3{fill:#7EC246;}
</style>
<g>
	<g class="st0">
		<path class="st1" d="M347.11,615.05c-1.56,1.51-3.75,2.26-6.58,2.26c-2.44,0-4.59-0.62-6.47-1.86c0,0.49-0.02,0.84-0.07,1.06
			c-0.12,0.34-0.47,0.51-1.06,0.51v-7.6h1.17c0.02,0.24,0.05,0.5,0.07,0.77c0.56,4.07,2.61,6.1,6.14,6.1c0.9,0,1.73-0.16,2.48-0.47
			c1.61-0.73,2.41-1.95,2.41-3.65c0-0.63-0.15-1.22-0.44-1.75c-0.59-1.02-1.96-2.02-4.13-3c-2.36-1.07-3.75-1.73-4.17-1.97
			c-2.26-1.29-3.4-2.96-3.4-5.01c0-1.39,0.5-2.58,1.5-3.58c1.49-1.46,3.56-2.19,6.21-2.19c2.17,0,4.15,0.47,5.95,1.42
			c0-0.24,0.02-0.45,0.07-0.62c0.07-0.41,0.43-0.62,1.06-0.62v6.43h-1.17c0.02-1.39-0.33-2.56-1.06-3.51
			c-1.05-1.39-2.58-2.08-4.6-2.08c-0.78,0-1.5,0.13-2.16,0.4c-1.51,0.61-2.27,1.69-2.27,3.25c0,0.58,0.13,1.14,0.4,1.68
			c0.56,1,1.91,1.97,4.06,2.92c2.39,1.07,3.77,1.73,4.17,1.97c2.34,1.34,3.51,3.08,3.51,5.22
			C348.76,612.65,348.21,613.96,347.11,615.05z"/>
		<path class="st1" d="M379.12,595.98h-2.92V616h1.97c0.12,0,0.24,0.01,0.37,0.04c0.39,0.07,0.58,0.38,0.58,0.91h-9.17V616h2.92
			v-17.57l-8.29,18.74h-0.77l-7.96-16.51V616h1.97c0.12,0,0.24,0.01,0.37,0.04c0.39,0.07,0.58,0.38,0.58,0.91h-7.31V616h2.92v-20.02
			h-2.92v-0.95h5.48l8.33,17.43l7.6-17.43h6.25V595.98z"/>
		<path class="st1" d="M394.43,616.95V616h2.45l-2.74-7.09h-7.56l-2.74,7.09h1.86c0.12,0,0.24,0.01,0.37,0.04
			c0.37,0.05,0.55,0.35,0.55,0.91h-6.54V616h2.3l8.15-20.97h1.64l8.4,20.97h1.21c0.12,0,0.24,0.01,0.37,0.04
			c0.39,0.05,0.58,0.35,0.58,0.91H394.43z M390.34,599.12l-3.36,8.73h6.72L390.34,599.12z"/>
		<path class="st1" d="M404.04,616.95V616h2.92v-20.02h-2.92v-0.95h11.11c1.9,0,3.51,0.44,4.82,1.32c1.58,1.1,2.38,2.56,2.38,4.39
			c0,0.73-0.15,1.45-0.44,2.16c-0.83,1.85-2.41,3.08-4.75,3.69L423,616h1.21c0.15,0,0.28,0.01,0.4,0.04
			c0.32,0.05,0.47,0.35,0.47,0.91h-5.7l-5.77-10.05h-3.14v9.1h2.92v0.95H404.04z M410.47,595.98v9.87h3.51c1.05,0,1.95-0.3,2.7-0.91
			c1.22-0.95,1.83-2.33,1.83-4.13c0-0.78-0.15-1.52-0.44-2.23c-0.78-1.73-2.19-2.6-4.24-2.6H410.47z"/>
		<path class="st1" d="M430.2,616.95V616h3.47v-20.02h-1.68c-2.02,0.02-3.37,1.28-4.06,3.76l-0.69,2.59h-1.02l0.18-7.31h18.23
			l0.15,7.31h-1.02l-0.69-2.59c-0.66-2.49-2-3.74-4.02-3.76h-1.86V616h2.52c0.12,0,0.24,0.01,0.37,0.04
			c0.39,0.07,0.58,0.38,0.58,0.91H430.2z"/>
		<path class="st1" d="M453.4,595.03h9.32v0.95h-2.89v12.57c0,1.46,0.15,2.73,0.44,3.8c0.73,2.63,2.56,3.95,5.48,3.95
			c0.17,0,0.35,0,0.55,0c3.7-0.27,5.55-2.82,5.55-7.67v-12.64h-2.92v-0.95h7.12v0.95h-2.92v12.42c0,1.46-0.15,2.74-0.44,3.84
			c-0.93,3.39-3.5,5.08-7.71,5.08c-5.72-0.02-8.61-2.87-8.66-8.55v-12.79h-2.92V595.03z"/>
		<path class="st1" d="M477.55,616.95V616h2.92v-20.02h-2.92v-0.95h11.11c1.9,0,3.51,0.44,4.82,1.32c1.58,1.1,2.38,2.56,2.38,4.39
			c0,0.73-0.15,1.45-0.44,2.16c-0.83,1.85-2.41,3.08-4.75,3.69l5.85,9.43h1.21c0.15,0,0.28,0.01,0.4,0.04
			c0.32,0.05,0.47,0.35,0.47,0.91h-5.7l-5.77-10.05h-3.14v9.1h2.92v0.95H477.55z M483.98,595.98v9.87h3.51c1.05,0,1.95-0.3,2.7-0.91
			c1.22-0.95,1.83-2.33,1.83-4.13c0-0.78-0.15-1.52-0.44-2.23c-0.78-1.73-2.19-2.6-4.24-2.6H483.98z"/>
		<path class="st1" d="M517.01,601.68c-0.63,1.56-1.88,2.67-3.73,3.32c0.97,0.17,1.85,0.46,2.63,0.88c1.92,1.02,2.89,2.58,2.89,4.68
			c0,1.24-0.38,2.39-1.13,3.44c-1.46,1.97-3.78,2.96-6.94,2.96h-10.82V616h2.92v-20.02h-2.92v-0.95h10.6c1.58,0,2.95,0.27,4.09,0.8
			c1.85,0.88,2.78,2.27,2.78,4.17C517.37,600.53,517.25,601.09,517.01,601.68z M506.34,595.98v8.59h3.03c0.9,0,1.69-0.21,2.37-0.62
			c1.29-0.76,1.94-1.97,1.94-3.65c0-0.29-0.02-0.58-0.07-0.88c-0.29-2.29-1.71-3.44-4.24-3.44H506.34z M506.34,605.55V616h3.84
			c1.07,0,2-0.3,2.78-0.91c1.29-1.02,1.94-2.53,1.94-4.53c0-0.78-0.13-1.51-0.4-2.19c-0.73-1.88-2.18-2.81-4.35-2.81H506.34z"/>
		<path class="st1" d="M534.65,616.95V616h2.45l-2.74-7.09h-7.56l-2.74,7.09h1.86c0.12,0,0.24,0.01,0.37,0.04
			c0.37,0.05,0.55,0.35,0.55,0.91h-6.54V616h2.3l8.15-20.97h1.64l8.4,20.97H542c0.12,0,0.24,0.01,0.37,0.04
			c0.39,0.05,0.58,0.35,0.58,0.91H534.65z M530.56,599.12l-3.36,8.73h6.72L530.56,599.12z"/>
		<path class="st1" d="M559.57,595.03h7.45v0.95h-2.92v20.79l-1.76,0.37l-14.32-17.72V616h2.16c0.12,0,0.24,0.01,0.37,0.04
			c0.39,0.07,0.58,0.38,0.58,0.91h-7.49V616h2.92v-20.02h-2.92v-0.95h5.3l13.7,16.92v-15.97h-3.07V595.03z"/>
		<path class="st1" d="M575.79,616.95V616h2.92v-20.02h-2.92v-0.95h17.14l0.18,6.69h-0.8l-0.58-1.9c0-0.05-0.01-0.1-0.04-0.15
			c-0.75-2.46-2.07-3.69-3.95-3.69h-5.52v9.13h7.45v1.06h-7.45V616h4.39v0.95H575.79z"/>
		<path class="st1" d="M607.8,616.95V616h2.45l-2.74-7.09h-7.56L597.2,616h1.86c0.12,0,0.24,0.01,0.37,0.04
			c0.37,0.05,0.55,0.35,0.55,0.91h-6.54V616h2.3l8.15-20.97h1.65l8.4,20.97h1.21c0.12,0,0.24,0.01,0.37,0.04
			c0.39,0.05,0.58,0.35,0.58,0.91H607.8z M603.71,599.12l-3.36,8.73h6.72L603.71,599.12z"/>
		<path class="st1" d="M617.41,616.95V616h2.92v-20.02h-2.92v-0.95h11.11c1.9,0,3.51,0.44,4.82,1.32c1.58,1.1,2.38,2.56,2.38,4.39
			c0,0.73-0.15,1.45-0.44,2.16c-0.83,1.85-2.41,3.08-4.75,3.69l5.85,9.43h1.21c0.15,0,0.28,0.01,0.4,0.04
			c0.32,0.05,0.47,0.35,0.47,0.91h-5.7l-5.77-10.05h-3.14v9.1h2.92v0.95H617.41z M623.84,595.98v9.87h3.51c1.05,0,1.95-0.3,2.7-0.91
			c1.22-0.95,1.83-2.33,1.83-4.13c0-0.78-0.15-1.52-0.44-2.23c-0.78-1.73-2.19-2.6-4.24-2.6H623.84z"/>
		<path class="st1" d="M667.06,595.98h-2.92V616h1.97c0.12,0,0.24,0.01,0.37,0.04c0.39,0.07,0.58,0.38,0.58,0.91h-9.17V616h2.92
			v-17.57l-8.29,18.74h-0.77l-7.96-16.51V616h1.97c0.12,0,0.24,0.01,0.37,0.04c0.39,0.07,0.58,0.38,0.58,0.91h-7.31V616h2.92v-20.02
			h-2.92v-0.95h5.48l8.33,17.43l7.6-17.43h6.25V595.98z"/>
	</g>
	<g>
		<path class="st2" d="M505.39,513.17c0,0-0.86-21.17-7.7-41.49c-6.84-20.32-33.79-38.92-33.79-38.92
			c17.96,0.64,41.49,36.14,41.49,36.14c-4.49-18.6-15.18-36.14-32.29-43.2c-17.11-7.06-44.27,0-44.27,0s19.25,3.64,32.93,27.8
			c13.69,24.16,31.79,20.96,31.79,20.96c9.98,24.81,5.85,61.48,5.85,61.48l3.8-0.43l2.6-24.23
			C505.52,512.49,505.39,513.17,505.39,513.17z"/>
		<path class="st3" d="M551.37,451.15c-39.56,1.92-42.56,36.78-42.56,36.78c25.02-29.3,34.64-25.02,34.64-25.02
			c-27.52,14.31-35.83,41.05-37.64,48.36l-2.6,24.23l2.55-0.29c-1.67-9.52,2.79-17.07,5.13-25.88c0.79-2.99,1.93-5.9,3.21-8.72
			c1.45-3.18,3.08-6.33,4.99-9.27c11.98,2.99,18.18-0.21,32.72-18.82c14.54-18.6,25.66-17.11,25.66-17.11
			C569.12,451.36,551.37,451.15,551.37,451.15z"/>
		<g>
			<g>
				<path class="st2" d="M547.51,447.3c-9.87-11.84-24.16-19.87-40.33-21.49v4.55c14.43,1.57,27.21,8.66,36.22,19.1
					C544.41,448.36,545.77,447.58,547.51,447.3z"/>
			</g>
			<g>
				<path class="st2" d="M555.57,471.87c-0.13,0-0.26-0.01-0.38-0.02c0.68,2.6,1.21,5.26,1.51,7.99h4.54
					c-0.31-3.08-0.88-6.09-1.64-9.02C558.5,471.48,557.16,471.87,555.57,471.87z"/>
			</g>
			<g>
				<path class="st2" d="M453.13,449.29c-6.93,9.03-11.39,20.04-12.3,32.04h4.53c0.89-10.86,4.92-20.83,11.15-29.05
					C454.94,451.73,453.82,450.64,453.13,449.29z"/>
			</g>
			<g>
				<path class="st2" d="M484.6,427.84c1.18,1.06,1.95,2.49,2.3,4.04c1.46-0.39,2.95-0.73,4.46-0.99v-4.57
					C489.06,426.69,486.81,427.21,484.6,427.84z"/>
			</g>
			<g>
				<path class="st2" d="M493.92,541.45c-23.32-3-42.19-20.42-47.35-43h-4.63c5.29,25.08,26.16,44.48,51.98,47.55V541.45z"/>
			</g>
			<g>
				<path class="st2" d="M556.41,494.38c-3.48,22.97-20.97,41.39-43.46,46.26v4.6c24.97-4.99,44.44-25.4,48.01-50.86H556.41z"/>
			</g>
		</g>
		<g>
			<path class="st2" d="M559.15,496.47c-3.63,0-6.58-2.95-6.58-6.58s2.95-6.58,6.58-6.58c3.63,0,6.58,2.95,6.58,6.58
				S562.77,496.47,559.15,496.47z M559.15,485.57c-2.38,0-4.32,1.94-4.32,4.32s1.94,4.32,4.32,4.32c2.38,0,4.32-1.94,4.32-4.32
				S561.53,485.57,559.15,485.57z"/>
		</g>
		<g>
			<path class="st2" d="M442.88,492.61c-3.63,0-6.58-2.95-6.58-6.58s2.95-6.58,6.58-6.58c3.63,0,6.58,2.95,6.58,6.58
				S446.5,492.61,442.88,492.61z M442.88,481.71c-2.38,0-4.32,1.94-4.32,4.32c0,2.38,1.94,4.32,4.32,4.32
				c2.38,0,4.32-1.94,4.32-4.32C447.2,483.64,445.26,481.71,442.88,481.71z"/>
		</g>
		<g>
			<path class="st2" d="M502.87,546.37c-3.63,0-6.58-2.95-6.58-6.58c0-3.63,2.95-6.58,6.58-6.58c3.63,0,6.58,2.95,6.58,6.58
				C509.45,543.42,506.5,546.37,502.87,546.37z M502.87,535.47c-2.38,0-4.32,1.94-4.32,4.32c0,2.38,1.94,4.32,4.32,4.32
				s4.32-1.94,4.32-4.32C507.19,537.41,505.26,535.47,502.87,535.47z"/>
		</g>
		<g>
			<path class="st2" d="M502.02,434.6c-3.63,0-6.58-2.95-6.58-6.58c0-3.63,2.95-6.58,6.58-6.58c3.63,0,6.58,2.95,6.58,6.58
				C508.6,431.64,505.65,434.6,502.02,434.6z M502.02,423.7c-2.38,0-4.32,1.94-4.32,4.32c0,2.38,1.94,4.32,4.32,4.32
				c2.38,0,4.32-1.94,4.32-4.32C506.34,425.63,504.4,423.7,502.02,423.7z"/>
		</g>
		<g>
			<path class="st2" d="M537.72,395.84c-3.63,0-6.58-2.95-6.58-6.58c0-3.63,2.95-6.58,6.58-6.58c3.63,0,6.58,2.95,6.58,6.58
				C544.3,392.89,541.35,395.84,537.72,395.84z M537.72,384.94c-2.38,0-4.32,1.94-4.32,4.32s1.94,4.32,4.32,4.32
				c2.38,0,4.32-1.94,4.32-4.32S540.11,384.94,537.72,384.94z"/>
		</g>
		<g>
			<g>
				<path class="st2" d="M478.8,411.83c-3.63,0-6.58-2.95-6.58-6.58c0-3.63,2.95-6.58,6.58-6.58c3.63,0,6.58,2.95,6.58,6.58
					C485.38,408.87,482.42,411.83,478.8,411.83z M478.8,400.93c-2.38,0-4.32,1.94-4.32,4.32s1.94,4.32,4.32,4.32
					c2.38,0,4.32-1.94,4.32-4.32S481.18,400.93,478.8,400.93z"/>
			</g>
		</g>
		<polygon class="st2" points="499.83,386.16 499.83,422.89 504.17,422.89 504.17,390.5 531.6,390.5 531.6,386.16 		"/>
		<g>
			<g>
				<rect x="484.79" y="403.8" class="st2" width="17.21" height="2.9"/>
				<path class="st2" d="M502.72,407.42h-18.66v-4.34h18.66V407.42z M485.51,405.97h15.76v-1.45h-15.76V405.97z"/>
			</g>
		</g>
		<g>
			<path class="st2" d="M585.4,461.12c-3.63,0-6.58-2.95-6.58-6.58c0-3.63,2.95-6.58,6.58-6.58c3.63,0,6.58,2.95,6.58,6.58
				C591.98,458.17,589.03,461.12,585.4,461.12z M585.4,450.22c-2.38,0-4.32,1.94-4.32,4.32c0,2.38,1.94,4.32,4.32,4.32
				c2.38,0,4.32-1.94,4.32-4.32C589.72,452.16,587.79,450.22,585.4,450.22z"/>
		</g>
		<g>
			<path class="st2" d="M585.4,529.86c-3.63,0-6.58-2.95-6.58-6.58c0-3.63,2.95-6.58,6.58-6.58c3.63,0,6.58,2.95,6.58,6.58
				C591.98,526.91,589.03,529.86,585.4,529.86z M585.4,518.96c-2.38,0-4.32,1.94-4.32,4.32c0,2.38,1.94,4.32,4.32,4.32
				c2.38,0,4.32-1.94,4.32-4.32C589.72,520.9,587.79,518.96,585.4,518.96z"/>
		</g>
		<polygon class="st2" points="583.9,460.35 583.9,487.84 564.74,487.84 564.74,492.18 583.9,492.18 583.9,517.43 587.52,517.43 
			587.52,460.35 		"/>
		<g>
			<path class="st2" d="M503.59,577.71c-3.63,0-6.58-2.95-6.58-6.58s2.95-6.58,6.58-6.58c3.63,0,6.58,2.95,6.58,6.58
				S507.22,577.71,503.59,577.71z M503.59,566.81c-2.38,0-4.32,1.94-4.32,4.32c0,2.38,1.94,4.32,4.32,4.32s4.32-1.94,4.32-4.32
				C507.91,568.75,505.97,566.81,503.59,566.81z"/>
		</g>
		<g>
			<rect x="501.4" y="545.24" class="st2" width="3.62" height="20.43"/>
		</g>
		<g>
			<path class="st2" d="M408.2,521.45c-3.63,0-6.58-2.95-6.58-6.58c0-3.63,2.95-6.58,6.58-6.58c3.63,0,6.58,2.95,6.58,6.58
				C414.78,518.5,411.83,521.45,408.2,521.45z M408.2,510.55c-2.38,0-4.32,1.94-4.32,4.32c0,2.38,1.94,4.32,4.32,4.32
				c2.38,0,4.32-1.94,4.32-4.32C412.53,512.49,410.59,510.55,408.2,510.55z"/>
		</g>
		<polygon class="st2" points="405.82,483.84 405.82,509.79 410.17,509.79 410.17,488.19 437.47,488.19 437.47,483.84 		"/>
		<path class="st3" d="M498.34,521.72c0,0-4.06-7.91-15.82-8.77c0,0,4.21-2,13.04,2.28c0,0-7.27-19.04-29.94-2.75
			c2.05-0.03,4.18,0.3,6.14,0.89c1.56,0.46,3.04,1.13,4.34,2.12c2.88,2.18,4.95,3.6,8.78,3.56c2.25-0.02,4.59-1.57,6.83-1.17
			c1.32,0.23,1.9,1.21,2.79,2.19c1.64,1.81,3.27,3.63,4.91,5.44L498.34,521.72z"/>
	</g>
</g>
<g>
	<path class="st2" d="M355.49,622.46v-8.88h3.06v2.16c1.46,2.66,3.38,3.99,5.75,3.99c1.21,0,2.23-0.37,3.06-1.11s1.25-1.71,1.25-2.9
		c0-1.16-0.34-2-1.02-2.5s-1.96-1.02-3.85-1.52c-2.19-0.59-3.81-1.14-4.87-1.66s-1.9-1.27-2.52-2.23s-0.94-2.11-0.94-3.44
		c0-2.05,0.68-3.69,2.05-4.91s3.08-1.84,5.14-1.84c1.96,0,3.77,0.63,5.45,1.9v-1.63h2.99v7.42h-2.99v-1.71
		c-1.25-1.89-2.98-2.83-5.19-2.83c-1.34,0-2.36,0.31-3.08,0.92s-1.07,1.35-1.07,2.21c0,0.66,0.18,1.23,0.54,1.73s0.83,0.86,1.39,1.1
		s1.67,0.56,3.32,0.98c2.16,0.56,3.72,1.08,4.69,1.57c0.97,0.49,1.81,1.3,2.51,2.44s1.05,2.44,1.05,3.92c0,2.09-0.74,3.81-2.21,5.17
		c-1.47,1.36-3.29,2.04-5.46,2.04c-2.23,0-4.23-0.8-6.01-2.41v2.02H355.49z"/>
	<path class="st2" d="M377.34,619.49v-11.07h-2.83v-2.97h6.17v2.14c2.01-1.61,3.98-2.41,5.91-2.41c1.94,0,3.28,0.88,4.02,2.65
		c2.21-1.77,4.28-2.65,6.19-2.65c1.1,0,2.01,0.24,2.72,0.73s1.19,1.1,1.43,1.85s0.37,1.84,0.37,3.3v8.44h2.97v2.97h-6.31v-10.81
		c0-0.98-0.04-1.68-0.13-2.08s-0.31-0.74-0.67-1s-0.79-0.4-1.29-0.4c-1.43,0-3.05,0.73-4.87,2.2v9.12h2.92v2.97h-6.26v-11.13
		c0-1.11-0.16-1.92-0.48-2.42s-0.87-0.75-1.64-0.75c-1.26,0-2.89,0.73-4.87,2.2v9.12h2.99v2.97h-9.37v-2.97H377.34z"/>
	<path class="st2" d="M423.15,619.49v2.97h-5.84v-2.07c-1.62,1.57-3.42,2.36-5.41,2.36c-1.55,0-2.89-0.5-4.03-1.51
		s-1.71-2.3-1.71-3.87c0-1.58,0.61-2.89,1.82-3.94s2.67-1.56,4.39-1.56c1.59,0,3.13,0.48,4.62,1.44v-1.69c0-0.87-0.08-1.54-0.25-2
		s-0.55-0.89-1.15-1.27s-1.39-0.56-2.36-0.56c-1.68,0-2.89,0.67-3.64,2l-3.2-0.84c1.42-2.65,3.87-3.97,7.35-3.97
		c1.28,0,2.38,0.17,3.31,0.52s1.63,0.79,2.08,1.34s0.76,1.13,0.92,1.77s0.24,1.64,0.24,3.02v7.88H423.15z M416.98,616.13
		c-1.44-1.13-2.9-1.69-4.38-1.69c-0.93,0-1.7,0.27-2.32,0.81s-0.93,1.24-0.93,2.09c0,0.8,0.27,1.46,0.82,2s1.29,0.81,2.22,0.81
		c1.62,0,3.15-0.68,4.59-2.04V616.13z"/>
	<path class="st2" d="M427.82,619.49v-11.07h-3.43v-2.97h6.1v3.83c0.38-1,0.9-1.82,1.56-2.48s1.37-1.09,2.12-1.3
		s1.76-0.32,3.05-0.32h0.88v3.38h-0.67c-1.7,0-2.97,0.17-3.81,0.51s-1.46,0.96-1.86,1.85s-0.61,2.5-0.61,4.83v3.74h3.71v2.97h-10.48
		v-2.97H427.82z"/>
	<path class="st2" d="M440.25,608.41v-2.97h2.21v-2.62l3.34-3.06v5.68h3.15v2.97h-3.15v8.26c0,1.32,0.07,2.14,0.22,2.45
		s0.51,0.47,1.1,0.47c0.62,0,1.23-0.12,1.83-0.35v3.04c-0.86,0.3-1.71,0.46-2.57,0.46c-1.02,0-1.85-0.23-2.48-0.68
		s-1.03-1.02-1.2-1.7s-0.25-1.85-0.25-3.52v-8.44H440.25z"/>
	<path class="st2" d="M466.21,601.07v12.23c0,1.9,0.1,3.21,0.29,3.94s0.68,1.34,1.45,1.85s1.77,0.76,2.99,0.76
		c1.45,0,2.57-0.22,3.34-0.66s1.29-1.03,1.54-1.78s0.38-2.06,0.38-3.95v-12.41h-2.83v-3.06h9.56v3.06h-3.06v12.78
		c0,1.72-0.07,2.97-0.22,3.75s-0.54,1.59-1.19,2.44s-1.55,1.53-2.72,2.04s-2.6,0.76-4.27,0.76c-1.85,0-3.39-0.24-4.62-0.71
		s-2.16-1.11-2.78-1.91s-1.03-1.65-1.24-2.55s-0.31-2.3-0.31-4.2v-12.41h-3.02v-3.06h9.62v3.06H466.21z"/>
	<path class="st2" d="M487.6,619.49v-11.07h-3.43v-2.97h6.1v3.83c0.38-1,0.9-1.82,1.56-2.48s1.37-1.09,2.12-1.3s1.76-0.32,3.05-0.32
		h0.88v3.38h-0.67c-1.7,0-2.97,0.17-3.81,0.51s-1.46,0.96-1.86,1.85s-0.61,2.5-0.61,4.83v3.74h3.71v2.97h-10.48v-2.97H487.6z"/>
	<path class="st2" d="M499.35,622.46v-2.97h3.02v-18.51h-3.02v-2.97h6.29v9.84c1.68-1.92,3.73-2.88,6.17-2.88
		c2.34,0,4.31,0.81,5.9,2.42s2.38,3.74,2.38,6.37c0,2.53-0.78,4.66-2.33,6.39s-3.54,2.59-5.97,2.59c-1.36,0-2.6-0.29-3.73-0.88
		s-1.93-1.24-2.43-1.95v2.55H499.35z M505.75,613.99c0,1.77,0.54,3.17,1.63,4.21s2.33,1.56,3.75,1.56c1.49,0,2.77-0.55,3.85-1.65
		s1.62-2.58,1.62-4.43c0-1.79-0.54-3.18-1.61-4.17s-2.33-1.49-3.77-1.49c-1.42,0-2.68,0.51-3.8,1.54S505.75,612.05,505.75,613.99z"
		/>
	<path class="st2" d="M540.3,619.49v2.97h-5.84v-2.07c-1.62,1.57-3.42,2.36-5.41,2.36c-1.55,0-2.89-0.5-4.03-1.51
		s-1.71-2.3-1.71-3.87c0-1.58,0.61-2.89,1.82-3.94s2.67-1.56,4.39-1.56c1.59,0,3.13,0.48,4.62,1.44v-1.69c0-0.87-0.08-1.54-0.25-2
		s-0.55-0.89-1.15-1.27s-1.39-0.56-2.36-0.56c-1.68,0-2.89,0.67-3.64,2l-3.2-0.84c1.42-2.65,3.87-3.97,7.35-3.97
		c1.28,0,2.38,0.17,3.31,0.52s1.63,0.79,2.08,1.34s0.76,1.13,0.92,1.77s0.24,1.64,0.24,3.02v7.88H540.3z M534.13,616.13
		c-1.44-1.13-2.9-1.69-4.38-1.69c-0.93,0-1.7,0.27-2.32,0.81s-0.93,1.24-0.93,2.09c0,0.8,0.27,1.46,0.82,2s1.29,0.81,2.22,0.81
		c1.62,0,3.15-0.68,4.59-2.04V616.13z"/>
	<path class="st2" d="M548.06,605.44v2.06c2.14-1.55,4.1-2.32,5.87-2.32c1.1,0,2.01,0.26,2.73,0.78s1.19,1.16,1.42,1.92
		s0.33,1.86,0.33,3.31v8.3h2.87v2.97h-6.21v-11.13c0-1.29-0.19-2.13-0.58-2.52s-0.86-0.59-1.42-0.59c-1.48,0-3.15,0.72-5.01,2.16
		v9.11h2.94v2.97h-9.26v-2.97h2.99v-11.07h-2.99v-2.97H548.06z"/>
	<path class="st2" d="M574.14,619.4v-18.33h-3.09v-3.06h18.97v7.37h-3.02v-4.31h-9.16v7.24h7.89v3.06h-7.89v8.03h3.13v3.06h-9.91
		v-3.06H574.14z"/>
	<path class="st2" d="M606.03,619.49v2.97h-5.84v-2.07c-1.62,1.57-3.42,2.36-5.41,2.36c-1.55,0-2.89-0.5-4.03-1.51
		s-1.71-2.3-1.71-3.87c0-1.58,0.61-2.89,1.82-3.94s2.67-1.56,4.39-1.56c1.59,0,3.13,0.48,4.62,1.44v-1.69c0-0.87-0.08-1.54-0.25-2
		s-0.55-0.89-1.15-1.27s-1.39-0.56-2.36-0.56c-1.68,0-2.89,0.67-3.64,2l-3.2-0.84c1.42-2.65,3.87-3.97,7.35-3.97
		c1.28,0,2.38,0.17,3.31,0.52s1.63,0.79,2.08,1.34s0.76,1.13,0.92,1.77s0.24,1.64,0.24,3.02v7.88H606.03z M599.86,616.13
		c-1.44-1.13-2.9-1.69-4.38-1.69c-0.93,0-1.7,0.27-2.32,0.81s-0.93,1.24-0.93,2.09c0,0.8,0.27,1.46,0.82,2s1.29,0.81,2.22,0.81
		c1.62,0,3.15-0.68,4.59-2.04V616.13z"/>
	<path class="st2" d="M610.7,619.49v-11.07h-3.43v-2.97h6.1v3.83c0.38-1,0.9-1.82,1.56-2.48s1.37-1.09,2.12-1.3s1.76-0.32,3.05-0.32
		h0.88v3.38h-0.67c-1.7,0-2.97,0.17-3.81,0.51s-1.46,0.96-1.86,1.85s-0.61,2.5-0.61,4.83v3.74h3.71v2.97h-10.48v-2.97H610.7z"/>
	<path class="st2" d="M625.49,619.49v-11.07h-2.83v-2.97h6.17v2.14c2.01-1.61,3.98-2.41,5.91-2.41c1.94,0,3.28,0.88,4.02,2.65
		c2.21-1.77,4.28-2.65,6.19-2.65c1.1,0,2.01,0.24,2.72,0.73s1.19,1.1,1.43,1.85s0.37,1.84,0.37,3.3v8.44h2.97v2.97h-6.31v-10.81
		c0-0.98-0.04-1.68-0.13-2.08s-0.31-0.74-0.67-1s-0.79-0.4-1.29-0.4c-1.43,0-3.05,0.73-4.87,2.2v9.12h2.92v2.97h-6.26v-11.13
		c0-1.11-0.16-1.92-0.48-2.42s-0.87-0.75-1.64-0.75c-1.26,0-2.89,0.73-4.87,2.2v9.12h2.99v2.97h-9.37v-2.97H625.49z"/>
</g>
<g>
</g>
<g>
</g>
<g>
</g>
<g>
</g>
<g>
</g>
<g>
</g>
</svg>
